# xmcd
#
# Track frame offsets:
#	150
#	7268
#	27993
#	47627
#	79911
#	107113
#	136795
#	159553
#	184704
#	202976
#
# Disc length: 3102 seconds
#
# Revision: 2
# Processed by: cddbd v1.5.2PL0 Copyright (c) Steve Scherf et al.
# Submitted via: audiograbber 1.83.01
#
DISCID=7e0c1c0a
DTITLE=The Youth Choir "Kamer..." - World Sun Songs
DYEAR=2009
DGENRE=Latvian Modern Choir Music
TTITLE0=Raimonds Pauls - Grezna saule debesis
TTITLE1=Sven-David Sandstrom - Ah! Sun-flower!
TTITLE2=Polina Medyulyanova - Ofiyat
TTITLE3=Bjorn Andor Drage - Comme un arbuste
TTITLE4=Stephen Leek - Knowee
TTITLE5=Thierry Pecou - Les effects du jour
TTITLE6=Hendrik Hofmeyr - Desert Sun
TTITLE7=John Tavener - The Eternal Sun
TTITLE8=Urmas Sisask - Imet loomas paikesele
TTITLE9=Leonid Desyatnikov - Utriennee razmishlenie o bozhiem velichii
EXTD=
EXTT0=
EXTT1=
EXTT2=
EXTT3=
EXTT4=
EXTT5=
EXTT6=
EXTT7=
EXTT8=
EXTT9=
PLAYORDER=
